<?xml version="1.0" encoding="utf-8"?>
<!-- Generator: Adobe Illustrator 18.1.1, SVG Export Plug-In . SVG Version: 6.00 Build 0)  -->
<svg version="1.1"
	 id="svg4429" sodipodi:version="0.32" inkscape:version="0.46" sodipodi:docname="delphin.svg" inkscape:output_extension="org.inkscape.output.svg.inkscape" inkscape:export-filename="C:\Users\Gregor\Desktop\delphin.png" inkscape:export-xdpi="11.427757" inkscape:export-ydpi="11.427757" xmlns:rdf="http://www.w3.org/1999/02/22-rdf-syntax-ns#" xmlns:dc="http://purl.org/dc/elements/1.1/" xmlns:inkscape="http://www.inkscape.org/namespaces/inkscape" xmlns:svg="http://www.w3.org/2000/svg" xmlns:cc="http://creativecommons.org/ns#" xmlns:sodipodi="http://sodipodi.sourceforge.net/DTD/sodipodi-0.dtd"
	 xmlns="http://www.w3.org/2000/svg" xmlns:xlink="http://www.w3.org/1999/xlink" x="0px" y="0px" viewBox="80.7 196.1 612.2 543.9"
	 enable-background="new 80.7 196.1 612.2 543.9" xml:space="preserve">
<defs>
	
	
		<inkscape:perspective  inkscape:persp3d-origin="526.18109 : 248.03149 : 1" inkscape:vp_x="0 : 372.04724 : 1" sodipodi:type="inkscape:persp3d" inkscape:vp_y="0 : 1000 : 0" inkscape:vp_z="1052.3622 : 372.04724 : 1" id="perspective4438">
		</inkscape:perspective>
</defs>
<sodipodi:namedview  inkscape:document-units="mm" inkscape:pageopacity="0.0" inkscape:pageshadow="2" inkscape:current-layer="layer1" inkscape:window-width="1272" inkscape:window-height="758" inkscape:window-y="14" inkscape:window-x="0" bordercolor="#666666" borderopacity="1.0" inkscape:zoom="0.43415836" inkscape:cx="235.47482" id="namedview4433" pagecolor="#ffffff" showgrid="false" inkscape:cy="398.18666">
	</sodipodi:namedview>
<g id="layer1" transform="translate(-174.93103,-46.318828)" inkscape:groupmode="layer" inkscape:label="Layer 1">
	<g id="delfin" transform="matrix(1.1882592,0,0,1.1882592,130.9531,-160.68498)">
		<path id="body" fill="#6FD7FF" stroke="#6FD7FF" stroke-width="0.5019" d="M230.2,339.4c-129.6,1.4-106.5,65.9-106,67.3
			c-1.2,1-16,10.3-16.1,13.6c0.3,1.7,1,2.5,1.3,2.9c-1.2,0.1-4.9,0.7-3.8,6.8c1.2,6.7,5.1,8.1,6.8,9.1c10.5,6.1,60,0.8,83,19.2
			c-6.7,33.2-6.2,75.2,34.3,94.7c1.2-6.6,3.7-30.6,7.8-61.2c2.2-16.2,2.9-13.4,3-13.4c8.1,7.1,69.5,39.1,105.8,55.3
			c19,8.6,60,33.4,72.3,38.7c12.4,5.2,19.5,8,29.7,18.9c12.5,13.4,51.5,72.7,64.6,115c-33,2.6-76.3,47.8-73.1,80.5
			c0.2,0.2,19.6-13.7,32.9-14.3c14.2,0.6,28.1,3.5,43.3,1.9c15.2-1.6,35.5-3.2,44-1.9c33.2,3.2,43.7,13.9,59.8,23.8
			c-1.8-25.9-1.2-35.5-23.6-58.9c-27-28.3-51-24.3-53.3-44c-0.8-6.3-3.3-156.3-87.4-251.7c-35.3-39.2-6.6-50.9-0.2-52.1
			c39.9-7.4,7.2-13.2-19.2-16.1c-10.6-1.2-35.5,1.5-54.8,4.6C373,374,315.3,339.3,230.2,339.4z"/>
		<path id="auge" fill="#43A4D7" stroke="#43A4D7" stroke-width="0.5019" d="M212.9,391c3.7,1.7,11-0.4,14.3-3c3.1-2.5-0.7-4-3-5
			C221.2,381.6,212.8,381.1,212.9,391z"/>
		<path id="schatten_x23_kopf" sodipodi:nodetypes="ccccc" fill="#43A4D7" stroke="#43A4D7" stroke-width="0.5019" d="M152,353.4
			c-24.5,11.8-34.3,31.2-28.2,53.1c13.9-9.1,35.9-10.3,56.8-8.6c-16.9-5.1-37.3-3.7-50.6-2.3C125.1,383.6,134.3,363.1,152,353.4z"/>
		<path id="schatten_1_" fill="#43A4D7" stroke="#43A4D7" stroke-width="0.5019" d="M345.7,533.9c13.1,6,61.5,34.5,81.3,42.6
			c22.6,9.2,34.3,34.2,39.5,41.4c26.5,37.2,44.2,79.7,46.2,88.5c-47.6,8.6-78,61.6-73.3,80.8c5.6-3.1,21.7-15,35.9-14.4
			c14.2,0.6,22.5,3.2,37.8,2.2c15.7-0.9,26.4-3.8,47.4-2.1c32.7,2.7,40.3,12.8,59.5,23.6c0.6-36.9-17.5-59-51.1-79.8
			c-8.2-5.1-34.4-10.3-40.1-20.3c-4.1-7.2-12.1-71.3-57.1-139.3c-60.8-92-121-113.1-169.2-136.2c-25.4-12.5-61.6-22.5-83.8-22.5
			c-27.1,0.1-47.6,11.7-63,20.1c-10.6,5.8-18.8,9.9-31.3,9.1c-12.6-1.2-12.1-3-14.9-4.6c-0.1-0.1-5.1-0.3-4.2,6.5
			c0.7,3.9,1.3,6.7,7.2,9.8c12.6,6.2,58,0.3,82.8,19c-15.3,31.8-4.4,82.2,33.8,98.7c9.6,4.2,1.2-84.4,24.6-69.8"/>
		<path id="flosse" fill="#6FD7FF" stroke="#6FD7FF" stroke-width="0.5019" d="M276.7,446.5c24,23,76.6,80.4,116.2,74.1
			c0,0-30.7-16.5-39.6-43.6c-2.3-7.2-9.8-16.5-37.5-28.2C311.2,446.9,276.7,435.4,276.7,446.5z"/>
	</g>
</g>
</svg>
