<?xml version="1.0" encoding="utf-8"?>
<!-- Generator: Adobe Illustrator 18.1.1, SVG Export Plug-In . SVG Version: 6.00 Build 0)  -->
<svg version="1.1"
	 id="svg1" sodipodi:docbase="/art/" sodipodi:docname="/art/dolp" xmlns:sodipodi="http://sodipodi.sourceforge.net/DTD/sodipodi-0.dtd"
	 xmlns="http://www.w3.org/2000/svg" xmlns:xlink="http://www.w3.org/1999/xlink" x="0px" y="0px" viewBox="15.3 741.3 611.9 393.1"
	 enable-background="new 15.3 741.3 611.9 393.1" xml:space="preserve">
<g>
	<path fill="#A9C5FC" fill-opacity="0.5" d="M599.5,911.2C599.5,910.8,599.4,910.8,599.5,911.2L599.5,911.2z"/>
	<path fill="#A9C5FC" fill-opacity="0.5" d="M626.6,978.8c1.2-6.3-7.6-18.7-11-23.5c-3.2-4.6-11.5-10.6-13.1-15.7
		c-0.3-1-0.3-8.1-0.4-8.6c-0.7-6.4-2.7-13.5-2.7-19.9c0-7.9-13.8-29.1-20.1-38.5c-10.3-15.3-23.7-28.5-38.6-39.3
		c-17.7-12.9-37.9-22.3-59.2-27.6c-11.8-2.9-23.9-4.6-36-5c-13.3-0.5-26.5,0.9-39.7,0.5c7.1-16.9-16.2-41-28-49.5
		c-7.1-5.2-43.4-19.9-33.6,0.6c5.4,11.4,16.7,18.3,16,31.7c-0.1,2.2-0.2,15.5-1.2,17.3c-3.2,5.2-19.8,9.1-25.1,11.5
		c-24.5,11.2-48.7,23.5-71,38.5c-26.6,18-48.1,40.1-64.1,67.9c-15.4,26.6-28.7,53.8-48,78c-6.2,7.8-12.9,15.3-19.8,22.6
		c-7.4,7.7-15.9,19.1-26,23c-19.4,7.5-44.7-4.8-64-7.5c-4.3-0.6-24.5-2.5-25.6,3.2c-0.4,2.2,21.1,9.9,23.7,11.6
		c3.5,2.4,8.6,5.7,9.6,10.3c0.9,4.2-1.9,5.3,1,9.6c2,3,6.3,3.3,8.1,7.1c2.1,4.2,0.6,10.3-0.1,14.7c-1.3,7.8-15.5,43.6-0.1,41.7
		c5.5-0.7,12.4-8.5,16.3-11.9c7-6.3,13.6-13.1,20-20.2c5.8-6.4,11.6-13.1,16.5-20.2c1.9-2.7,4.1-10,6.2-11.8
		c3.1-2.6,9.8-2.2,13.6-2.9c42.2-7.2,79.7-32.3,111.9-59.2c11.9-10,22.8-23.5,37-28.3c13.6-4.6,26.8-11.9,40.2-17.3
		c31.8-12.9,66.3-21.5,100.8-20.8c-12,4.2-15.7,15-25,22c-3.3,2.5-7,3.1-10.8,4.7c-3.6,1.6-7.3,6.5-9,7.4c7.9,0,15.9,1.1,24.2,0.4
		c17.4-1.6,33.2-8.8,48.4-17.4c8.4-4.8,14.4-14,23.7-12.7c8,1.2,16.1,4.1,24,6.1c-5.6,4-21.6,16.1-10.1,21.9
		c6.6,3.3,18.7-0.4,25.1-1.8c11-2.5,22.3-9.4,32.9-10.6c17.7-1.9,28.6,9.2,42.6,17.5c6.9,4.1,14.6,8.4,22.7,9.2
		c3.6,0.4,7.3,0.3,10.7-1.2C620.7,986,628.5,979.1,626.6,978.8C626.8,977.8,627.9,979,626.6,978.8z"/>
</g>
</svg>
